<svg width="131" height="47" viewBox="0 0 131 47" fill="none" xmlns="http://www.w3.org/2000/svg">
<path fill-rule="evenodd" clip-rule="evenodd" d="M17.6997 2.77432C16.3509 2.23533 14.7207 1.96094 12.8091 1.96094H1.94092V34.1828H9.31573V23.2462H12.8091C14.7207 23.2462 16.3509 22.9718 17.6997 22.4328C19.0485 21.8938 20.1936 21.1392 21.1154 20.169C22.0761 19.1694 22.8136 18.0327 23.3473 16.7489C23.881 15.4651 24.143 14.0833 24.143 12.6036C24.143 11.1238 23.881 9.742 23.3473 8.45823C22.8136 7.17445 22.0664 6.03767 21.1154 5.03808C20.1839 4.0679 19.0485 3.31331 17.6997 2.77432ZM14.0414 16.3177C13.498 16.5235 12.7508 16.6215 11.7611 16.6215H9.31573V8.58562H11.7611C12.7508 8.58562 13.5077 8.70322 14.0414 8.92862C14.6043 9.12462 15.0603 9.39901 15.4291 9.742C16.186 10.4574 16.5644 11.408 16.5644 12.6036C16.5644 13.7991 16.186 14.7497 15.4291 15.4651C15.07 15.7983 14.6043 16.0923 14.0414 16.3177ZM85.5577 1.96094C87.4694 1.96094 89.0996 2.23533 90.4484 2.77432C91.7972 3.31331 92.9326 4.0679 93.8641 5.03808C94.8151 6.03767 95.5622 7.17445 96.096 8.45823C96.6297 9.742 96.8917 11.1238 96.8917 12.6036C96.8917 14.0833 96.6297 15.4651 96.096 16.7489C95.5622 18.0327 94.8248 19.1694 93.8641 20.169C92.9423 21.1392 91.7972 21.8938 90.4484 22.4328C89.0996 22.9718 87.4694 23.2462 85.5577 23.2462H82.0644V34.1828H74.6896V1.96094H85.5577ZM84.5 16.6215C85.4898 16.6215 86.237 16.5235 86.7804 16.3177C87.3432 16.0923 87.809 15.7983 88.168 15.4651C88.9249 14.7497 89.3034 13.7991 89.3034 12.6036C89.3034 11.408 88.9249 10.4574 88.168 9.742C87.7993 9.39901 87.3432 9.12462 86.7804 8.92862C86.2467 8.70322 85.4898 8.58562 84.5 8.58562H82.0547V16.6215H84.5ZM129.059 34.1338V1.96094H121.811V34.1338H129.059ZM119.142 34.1928V12.839H112.699V14.6813C111.894 13.8778 110.962 13.2702 109.924 12.839C108.885 12.3784 107.76 12.153 106.557 12.153C105.043 12.153 103.636 12.4568 102.345 13.0546C101.055 13.623 99.9386 14.4167 98.978 15.4457C98.0173 16.4747 97.2604 17.6899 96.6976 19.0815C96.1639 20.4436 95.9019 21.9234 95.9019 23.5208C95.9019 25.1182 96.1639 26.6175 96.6976 28.0091C97.2604 29.3713 98.0173 30.5669 98.978 31.5959C99.9289 32.615 101.055 33.4284 102.345 34.0262C103.636 34.5946 105.043 34.8788 106.557 34.8788C107.76 34.8788 108.885 34.6436 109.924 34.1928C110.952 33.7616 111.884 33.154 112.699 32.3504V34.1928H119.142ZM110.962 26.9997C110.118 27.9209 109.041 28.3717 107.721 28.3717C106.401 28.3717 105.305 27.9111 104.431 26.9997C103.587 26.0981 103.16 24.9222 103.16 23.5012C103.16 22.0802 103.587 20.914 104.431 20.0027C105.305 19.0815 106.411 18.6307 107.721 18.6307C109.031 18.6307 110.118 19.0913 110.962 20.0027C111.835 20.9042 112.272 22.0802 112.272 23.5012C112.272 24.9222 111.835 26.0883 110.962 26.9997ZM55.5248 12.819H47.5192L57.2909 30.3019L50.0422 45.0408H57.417L73.302 12.819H65.8883L61.0462 23.0696H60.9589L55.5248 12.819ZM46.0927 12.839V34.1928H39.6495V32.3504C38.8344 33.154 37.9028 33.7616 36.8742 34.1928C35.8359 34.6436 34.7103 34.8788 33.507 34.8788C31.9932 34.8788 30.5862 34.5946 29.2956 34.0262C28.005 33.4284 26.8794 32.615 25.9284 31.5959C24.9678 30.5669 24.2109 29.3713 23.6481 28.0091C23.1144 26.6175 22.8524 25.1182 22.8524 23.5208C22.8524 21.9234 23.1144 20.4436 23.6481 19.0815C24.2109 17.6899 24.9678 16.4747 25.9284 15.4457C26.8794 14.4167 28.005 13.623 29.2956 13.0546C30.5862 12.4568 31.9932 12.153 33.507 12.153C34.7103 12.153 35.8359 12.3784 36.8742 12.839C37.9125 13.2702 38.8441 13.8778 39.6495 14.6813V12.839H46.0927ZM34.6715 28.3717C35.9912 28.3717 37.0683 27.9209 37.9222 26.9997C38.7955 26.0883 39.2322 24.9222 39.2322 23.5012C39.2322 22.0802 38.7955 20.9042 37.9222 20.0027C37.078 19.0913 35.9912 18.6307 34.6715 18.6307C33.3518 18.6307 32.2553 19.0815 31.3819 20.0027C30.5377 20.914 30.1204 22.0802 30.1204 23.5012C30.1204 24.9222 30.5474 26.0981 31.3819 26.9997C32.2553 27.9111 33.3518 28.3717 34.6715 28.3717Z" fill="black"/>
<path fill-rule="evenodd" clip-rule="evenodd" d="M17.6997 2.77432C16.3509 2.23533 14.7207 1.96094 12.8091 1.96094H1.94092V34.1828H9.31573V23.2462H12.8091C14.7207 23.2462 16.3509 22.9718 17.6997 22.4328C19.0485 21.8938 20.1936 21.1392 21.1154 20.169C22.0761 19.1694 22.8136 18.0327 23.3473 16.7489C23.881 15.4651 24.143 14.0833 24.143 12.6036C24.143 11.1238 23.881 9.742 23.3473 8.45823C22.8136 7.17445 22.0664 6.03767 21.1154 5.03808C20.1839 4.0679 19.0485 3.31331 17.6997 2.77432ZM14.0414 16.3177C13.498 16.5235 12.7508 16.6215 11.7611 16.6215H9.31573V8.58562H11.7611C12.7508 8.58562 13.5077 8.70322 14.0414 8.92862C14.6043 9.12462 15.0603 9.39901 15.4291 9.742C16.186 10.4574 16.5644 11.408 16.5644 12.6036C16.5644 13.7991 16.186 14.7497 15.4291 15.4651C15.07 15.7983 14.6043 16.0923 14.0414 16.3177ZM85.5577 1.96094C87.4694 1.96094 89.0996 2.23533 90.4484 2.77432C91.7972 3.31331 92.9326 4.0679 93.8641 5.03808C94.8151 6.03767 95.5622 7.17445 96.096 8.45823C96.6297 9.742 96.8917 11.1238 96.8917 12.6036C96.8917 14.0833 96.6297 15.4651 96.096 16.7489C95.5622 18.0327 94.8248 19.1694 93.8641 20.169C92.9423 21.1392 91.7972 21.8938 90.4484 22.4328C89.0996 22.9718 87.4694 23.2462 85.5577 23.2462H82.0644V34.1828H74.6896V1.96094H85.5577ZM84.5 16.6215C85.4898 16.6215 86.237 16.5235 86.7804 16.3177C87.3432 16.0923 87.809 15.7983 88.168 15.4651C88.9249 14.7497 89.3034 13.7991 89.3034 12.6036C89.3034 11.408 88.9249 10.4574 88.168 9.742C87.7993 9.39901 87.3432 9.12462 86.7804 8.92862C86.2467 8.70322 85.4898 8.58562 84.5 8.58562H82.0547V16.6215H84.5ZM129.059 34.1338V1.96094H121.811V34.1338H129.059ZM119.142 34.1928V12.839H112.699V14.6813C111.894 13.8778 110.962 13.2702 109.924 12.839C108.885 12.3784 107.76 12.153 106.557 12.153C105.043 12.153 103.636 12.4568 102.345 13.0546C101.055 13.623 99.9386 14.4167 98.978 15.4457C98.0173 16.4747 97.2604 17.6899 96.6976 19.0815C96.1639 20.4436 95.9019 21.9234 95.9019 23.5208C95.9019 25.1182 96.1639 26.6175 96.6976 28.0091C97.2604 29.3713 98.0173 30.5669 98.978 31.5959C99.9289 32.615 101.055 33.4284 102.345 34.0262C103.636 34.5946 105.043 34.8788 106.557 34.8788C107.76 34.8788 108.885 34.6436 109.924 34.1928C110.952 33.7616 111.884 33.154 112.699 32.3504V34.1928H119.142ZM110.962 26.9997C110.118 27.9209 109.041 28.3717 107.721 28.3717C106.401 28.3717 105.305 27.9111 104.431 26.9997C103.587 26.0981 103.16 24.9222 103.16 23.5012C103.16 22.0802 103.587 20.914 104.431 20.0027C105.305 19.0815 106.411 18.6307 107.721 18.6307C109.031 18.6307 110.118 19.0913 110.962 20.0027C111.835 20.9042 112.272 22.0802 112.272 23.5012C112.272 24.9222 111.835 26.0883 110.962 26.9997ZM55.5248 12.819H47.5192L57.2909 30.3019L50.0422 45.0408H57.417L73.302 12.819H65.8883L61.0462 23.0696H60.9589L55.5248 12.819ZM46.0927 12.839V34.1928H39.6495V32.3504C38.8344 33.154 37.9028 33.7616 36.8742 34.1928C35.8359 34.6436 34.7103 34.8788 33.507 34.8788C31.9932 34.8788 30.5862 34.5946 29.2956 34.0262C28.005 33.4284 26.8794 32.615 25.9284 31.5959C24.9678 30.5669 24.2109 29.3713 23.6481 28.0091C23.1144 26.6175 22.8524 25.1182 22.8524 23.5208C22.8524 21.9234 23.1144 20.4436 23.6481 19.0815C24.2109 17.6899 24.9678 16.4747 25.9284 15.4457C26.8794 14.4167 28.005 13.623 29.2956 13.0546C30.5862 12.4568 31.9932 12.153 33.507 12.153C34.7103 12.153 35.8359 12.3784 36.8742 12.839C37.9125 13.2702 38.8441 13.8778 39.6495 14.6813V12.839H46.0927ZM34.6715 28.3717C35.9912 28.3717 37.0683 27.9209 37.9222 26.9997C38.7955 26.0883 39.2322 24.9222 39.2322 23.5012C39.2322 22.0802 38.7955 20.9042 37.9222 20.0027C37.078 19.0913 35.9912 18.6307 34.6715 18.6307C33.3518 18.6307 32.2553 19.0815 31.3819 20.0027C30.5377 20.914 30.1204 22.0802 30.1204 23.5012C30.1204 24.9222 30.5474 26.0981 31.3819 26.9997C32.2553 27.9111 33.3518 28.3717 34.6715 28.3717Z" fill="black"/>
</svg>
