<svg width="178" height="70" viewBox="0 0 178 70" fill="none" xmlns="http://www.w3.org/2000/svg">
<rect width="177.059" height="70" rx="16.4706" fill="#60CDFF"/>
<path d="M147.238 18.625V48.7705H140.412V18.625H147.238Z" fill="black"/>
<path d="M137.893 28.7852V48.8073H131.823V47.0842C131.057 47.8334 130.18 48.4046 129.206 48.8073C128.227 49.2334 127.169 49.4488 126.032 49.4488C124.602 49.4488 123.28 49.1819 122.064 48.6481C120.848 48.0862 119.79 47.3277 118.89 46.3678C117.989 45.4079 117.275 44.2841 116.746 43.0058C116.244 41.6994 115.994 40.2947 115.994 38.801C115.994 37.3073 116.244 35.9166 116.746 34.6383C117.275 33.3319 117.989 32.1941 118.89 31.2342C119.79 30.2743 120.848 29.5251 122.064 28.9913C123.28 28.4294 124.602 28.1484 126.032 28.1484C127.169 28.1484 128.227 28.3638 129.206 28.7899C130.185 29.1926 131.057 29.7639 131.823 30.5131V28.7899H137.893V28.7852ZM127.136 43.3617C128.38 43.3617 129.396 42.9356 130.19 42.0787C131.011 41.2265 131.419 40.1308 131.419 38.7963C131.419 37.4618 131.011 36.3661 130.19 35.5139C129.396 34.6617 128.375 34.2309 127.136 34.2309C125.897 34.2309 124.862 34.657 124.041 35.5139C123.247 36.3661 122.848 37.4618 122.848 38.7963C122.848 40.1308 123.247 41.2265 124.041 42.0787C124.862 42.9309 125.892 43.3617 127.136 43.3617Z" fill="black"/>
<path d="M106.261 18.6172C108.061 18.6172 109.593 18.87 110.864 19.3757C112.136 19.8814 113.208 20.5885 114.08 21.4969C114.98 22.4334 115.681 23.501 116.182 24.6997C116.683 25.9031 116.934 27.1954 116.934 28.5861C116.934 29.9768 116.683 31.2691 116.182 32.4725C115.681 33.6759 114.98 34.7435 114.08 35.6753C113.208 36.5837 112.136 37.2907 110.864 37.7964C109.593 38.3021 108.061 38.555 106.261 38.555H102.966V48.8048H96.0188V18.6172H106.256H106.261ZM105.268 32.3508C106.196 32.3508 106.906 32.2571 107.412 32.0698C107.941 31.8544 108.377 31.5875 108.72 31.2691C109.435 30.5995 109.792 29.7052 109.792 28.5861C109.792 27.467 109.435 26.5726 108.72 25.9031C108.377 25.5846 107.941 25.3271 107.412 25.1445C106.91 24.9291 106.196 24.8261 105.268 24.8261H102.966V32.3554H105.268V32.3508Z" fill="black"/>
<path d="M70.4348 28.791H77.9758L83.0944 38.3994H83.1733L87.735 28.791H94.7192L79.7578 58.9833H72.8108L79.6372 45.1702L70.4302 28.791H70.4348Z" fill="black"/>
<path d="M69.0831 28.7852V48.8073H63.0132V47.0842C62.2475 47.8334 61.3704 48.4046 60.3959 48.8073C59.4167 49.2334 58.3587 49.4488 57.2217 49.4488C55.7924 49.4488 54.4698 49.1819 53.254 48.6481C52.0382 48.0862 50.9801 47.3277 50.0798 46.3678C49.1795 45.4079 48.4649 44.2841 47.9359 43.0058C47.4347 41.6994 47.1841 40.2947 47.1841 38.801C47.1841 37.3073 47.4347 35.9166 47.9359 34.6383C48.4649 33.3319 49.1795 32.1941 50.0798 31.2342C50.9801 30.2743 52.0382 29.5251 53.254 28.9913C54.4698 28.4294 55.7924 28.1484 57.2217 28.1484C58.3587 28.1484 59.4167 28.3638 60.3959 28.7899C61.3751 29.1926 62.2475 29.7639 63.0132 30.5131V28.7899H69.0831V28.7852ZM58.3262 43.3617C59.5699 43.3617 60.5862 42.9356 61.3844 42.0787C62.2058 41.2265 62.6141 40.1308 62.6141 38.7963C62.6141 37.4618 62.2058 36.3661 61.3844 35.5139C60.5908 34.6617 59.5699 34.2309 58.3262 34.2309C57.0825 34.2309 56.0523 34.657 55.2309 35.5139C54.4374 36.3661 54.0383 37.4618 54.0383 38.7963C54.0383 40.1308 54.4374 41.2265 55.2309 42.0787C56.0523 42.9309 57.0825 43.3617 58.3262 43.3617Z" fill="black"/>
<path d="M37.7338 18.6172C39.5343 18.6172 41.0657 18.87 42.3373 19.3757C43.6088 19.8814 44.6808 20.5885 45.5532 21.4969C46.4535 22.4334 47.1542 23.501 47.6554 24.6997C48.1566 25.9031 48.4072 27.1954 48.4072 28.5861C48.4072 29.9768 48.1566 31.2691 47.6554 32.4725C47.1542 33.6759 46.4535 34.7435 45.5532 35.6753C44.6808 36.5837 43.6088 37.2907 42.3373 37.7964C41.0657 38.3021 39.5343 38.555 37.7338 38.555H34.4389V48.8048H27.4966V18.6172H37.7338ZM36.7453 32.3508C37.6735 32.3508 38.3835 32.2571 38.8893 32.0698C39.4183 31.8544 39.8545 31.5875 40.1979 31.2691C40.9126 30.5995 41.2699 29.7052 41.2699 28.5861C41.2699 27.467 40.9126 26.5726 40.1979 25.9031C39.8545 25.5846 39.4183 25.3271 38.8893 25.1445C38.3881 24.9291 37.6735 24.8261 36.7453 24.8261H34.4436V32.3554H36.7453V32.3508Z" fill="black"/>
</svg>
