<?xml version="1.0" encoding="UTF-8"?>
<svg id="Layer_1" xmlns="http://www.w3.org/2000/svg" version="1.1" viewBox="0 0 325 393">
  <!-- Generator: Adobe Illustrator 29.0.1, SVG Export Plug-In . SVG Version: 2.1.0 Build 192)  -->
  <defs>
    <style>
      .st0 {
        fill: #002991;
      }

      .st1 {
        fill: #008cff;
      }

      .st2 {
        fill: #60cdff;
      }
    </style>
  </defs>
  <path class="st0" d="M272.3,95.2c0,46.4-42.9,101.2-107.7,101.2h-62.4l-3,19.3-14.6,93.1H6.9L53.6,9h125.8c42.3,0,75.7,23.6,87.9,56.4,3.5,9.3,5.2,19.3,5,29.8Z"/>
  <path class="st2" d="M317,181.4c-8.6,52-53.4,90-106.2,90h-43.4l-18.1,112.5h-77.2l12.4-75,14.6-93.1,3-19.3h62.4c64.8,0,107.7-54.8,107.7-101.2,0,0,0,0,0,0,31.9,16.4,50.4,49.7,44.7,86.2Z"/>
  <path d="M272.3,95.2s0,0,0,0c0-.8,0-.8,0,0Z"/>
  <path class="st1" d="M272.3,95.2c-13.3-7-29.5-11.2-47.2-11.2h-105.3l-17.6,112.5h62.4c64.8,0,107.7-54.8,107.7-101.2Z"/>
</svg>