<svg width="70" height="70" viewBox="0 0 70 70" fill="none" xmlns="http://www.w3.org/2000/svg">
<g clip-path="url(#clip0_2368_1287)">
<path opacity="0.95" d="M40.4783 4.375C47.8909 4.375 53.7221 8.50684 55.8699 14.249C56.4812 15.8744 56.7804 17.6337 56.7507 19.4678C54.4092 18.2448 51.5752 17.4991 48.488 17.499H30.0525L26.9656 37.1865H37.9734C37.9483 37.1866 37.9233 37.1875 37.8982 37.1875H26.9656L26.4285 40.5732L23.8777 56.875H10.2908L18.4636 4.375H40.4783Z" fill="black"/>
<path opacity="0.5" d="M64.5804 34.5625C63.074 43.6605 55.2437 50.3125 45.9817 50.3125H38.39L35.2281 70H21.7153L23.878 56.875L26.4284 40.5732L26.9653 37.1875H37.8979C49.2331 37.1875 56.7501 27.5973 56.7501 19.4688C62.3283 22.3473 65.5797 28.1641 64.5804 34.5625Z" fill="black"/>
<path opacity="0.7" d="M56.7504 19.4687C54.4088 18.2457 51.575 17.5 48.4876 17.5H30.0529L26.9656 37.1875H37.8981C49.2333 37.1875 56.7504 27.5973 56.7504 19.4687Z" fill="black"/>
</g>
<defs>
<clipPath id="clip0_2368_1287">
<rect width="54.4688" height="65.625" fill="white" transform="translate(10.2908 4.375)"/>
</clipPath>
</defs>
</svg>
