<svg width="76" height="14" viewBox="0 0 76 14" fill="none" xmlns="http://www.w3.org/2000/svg">
<path d="M0 0.316406H3.47949C5.81659 0.316406 6.91925 2.01046 6.91925 3.58596C6.91925 5.16147 5.81659 6.85552 3.47949 6.85552H2.29803V10.2165H0V0.316406ZM3.13777 4.81974C4.04373 4.81974 4.55566 4.32107 4.55566 3.5853C4.55566 2.84953 4.04373 2.35085 3.13777 2.35085H2.29736V4.81908H3.13777V4.81974ZM6.57752 6.93366C6.57752 4.97736 8.0219 3.44093 9.89939 3.44093C10.6477 3.44093 11.3173 3.72967 11.8166 4.21577V3.65086H13.8252V10.2158H11.8166V9.65156C11.3179 10.1377 10.6484 10.4264 9.89939 10.4264C8.0219 10.4264 6.57752 8.88997 6.57752 6.93366ZM11.6855 6.93366C11.6855 6.06743 11.0815 5.43697 10.2676 5.43697C9.4537 5.43697 8.84972 6.06743 8.84972 6.93366C8.84972 7.79989 9.4537 8.43036 10.2676 8.43036C11.0815 8.43036 11.6855 7.79989 11.6855 6.93366ZM17.3312 9.00785L14.2981 3.65086H16.7928L18.4869 6.77605H18.5001L19.9968 3.65086H22.3339L17.3842 13.5509H15.0471L17.3319 9.00785H17.3312ZM22.8061 0.316406H26.2856C28.6227 0.316406 29.7253 2.01046 29.7253 3.58596C29.7253 5.16147 28.6227 6.85552 26.2856 6.85552H25.1041V10.2165H22.8061V0.316406ZM25.9439 4.81974C26.8498 4.81974 27.3617 4.32107 27.3617 3.5853C27.3617 2.84953 26.8498 2.35085 25.9439 2.35085H25.1035V4.81908H25.9439V4.81974ZM29.3843 6.93366C29.3843 4.97736 30.8287 3.44093 32.7061 3.44093C33.4545 3.44093 34.124 3.72967 34.6234 4.21577V3.65086H36.632V10.2158H34.6234V9.65156C34.1247 10.1377 33.4552 10.4264 32.7061 10.4264C30.8287 10.4264 29.3843 8.88997 29.3843 6.93366ZM34.4916 6.93366C34.4916 6.06743 33.8876 5.43697 33.0737 5.43697C32.2598 5.43697 31.6558 6.06743 31.6558 6.93366C31.6558 7.79989 32.2598 8.43036 33.0737 8.43036C33.8876 8.43036 34.4916 7.79989 34.4916 6.93366ZM37.4982 0.316406H39.7042V10.2165H37.4982V0.316406Z" fill="white"/>
<path d="M42.2888 5.26552C42.2888 2.42974 44.4815 0.158203 47.3829 0.158203C48.3809 0.158203 49.3001 0.433701 50.061 0.919797V2.44298C49.365 1.85225 48.4723 1.49795 47.4617 1.49795C45.3478 1.49795 43.7458 3.12577 43.7458 5.26618C43.7458 7.40659 45.3478 9.03441 47.4617 9.03441C48.473 9.03441 49.3657 8.68011 50.061 8.08938V9.61256C49.2995 10.0987 48.3802 10.3742 47.3829 10.3742C44.4809 10.3742 42.2888 8.10262 42.2888 5.26684V5.26552Z" fill="white"/>
<path d="M50.9404 3.91127H52.2139V4.71193C52.2663 4.63312 52.3318 4.56756 52.3981 4.502C52.8053 4.09471 53.3828 3.8457 54.0391 3.8457C54.1835 3.8457 54.3146 3.85895 54.459 3.87219V5.14571C54.3146 5.13246 54.1835 5.11922 54.0259 5.11922C53.5007 5.11922 53.0676 5.30333 52.7656 5.6179C52.4636 5.91989 52.2802 6.32717 52.2802 7.06228V10.2133H50.9411V3.91127H50.9404Z" fill="white"/>
<path d="M54.5378 7.07773C54.5378 5.18699 55.851 3.75586 57.61 3.75586C59.3689 3.75586 60.6689 5.18699 60.6689 7.06449C60.6689 7.2221 60.6557 7.39297 60.6424 7.55058H55.9027C56.0338 8.45655 56.8086 9.11284 57.7802 9.11284C58.5153 9.11284 59.1325 8.73205 59.4477 8.15456L60.5504 8.79761C59.9855 9.7559 58.9749 10.3731 57.7669 10.3731C55.9285 10.3731 54.5371 8.91549 54.5371 7.07773H54.5378ZM59.2908 6.46051C59.212 5.59428 58.5424 4.96381 57.6232 4.96381C56.704 4.96381 55.9954 5.59428 55.9033 6.46051H59.2908Z" fill="white"/>
<path d="M61.2339 7.06361C61.2339 5.22519 62.6127 3.75499 64.4114 3.75499C65.173 3.75499 65.8425 4.03049 66.3544 4.50334V0H67.6935V10.2146H66.42V9.58416C65.8948 10.0828 65.1988 10.3722 64.4114 10.3722C62.6127 10.3722 61.2339 8.90204 61.2339 7.06361ZM66.4988 7.06361C66.4988 5.90798 65.6584 5.04175 64.5558 5.04175C63.4531 5.04175 62.6259 5.90798 62.6259 7.06361C62.6259 8.21925 63.4664 9.08548 64.5558 9.08548C65.6452 9.08548 66.4988 8.21925 66.4988 7.06361Z" fill="white"/>
<path d="M68.7568 2.03487C68.7568 1.53619 69.1767 1.12891 69.676 1.12891C70.1754 1.12891 70.582 1.53619 70.582 2.03487C70.582 2.53355 70.1747 2.95408 69.676 2.95408C69.1774 2.95408 68.7568 2.52097 68.7568 2.03487ZM69.0065 3.91237H70.3456V10.2144H69.0065V3.91237Z" fill="white"/>
<path d="M72.3802 5.10909H71.2246V3.91438H72.3802V1.51172H73.7193V3.91438H75.0717V5.10909H73.7193V10.2164H72.3802V5.10909Z" fill="white"/>
</svg>
