<svg width="169" height="71" viewBox="0 0 169 71" fill="none" xmlns="http://www.w3.org/2000/svg">
<rect width="169" height="70.285" rx="16.47" fill="#60CDFF"/>
<g clip-path="url(#clip0_2368_1230)">
<path opacity="0.95" d="M36.4751 19.9902C40.2929 19.9904 43.2965 22.1178 44.4028 25.0752C44.7178 25.9126 44.8713 26.8197 44.856 27.7646C43.6498 27.1347 42.1903 26.75 40.6001 26.75H31.105L29.5142 36.8916L29.2378 38.6348L27.9243 47.0322H20.9253L25.1353 19.9902H36.4751Z" fill="black"/>
<path opacity="0.5" d="M48.8897 35.5383C48.1137 40.2246 44.0804 43.651 39.3096 43.651H35.3993L33.7706 53.7918H26.8103L27.9243 47.0313L29.238 38.6343L29.5145 36.8904H35.1458C40.9844 36.8904 44.8564 31.9506 44.8564 27.7637C47.7296 29.2464 49.4044 32.2425 48.8897 35.5383Z" fill="black"/>
<path opacity="0.7" d="M44.8563 27.7641C43.6501 27.1341 42.1904 26.75 40.6002 26.75H31.1047L29.5144 36.8908H35.1456C40.9843 36.8908 44.8563 31.951 44.8563 27.7641Z" fill="black"/>
</g>
<path d="M74.1473 49.1806C66.4976 49.1806 60.7435 43.1924 60.7766 35.7158C60.8097 28.2393 66.6168 22.2511 74.2665 22.2511C76.8972 22.2511 79.3169 22.978 81.3189 24.2587L81.3011 28.2739C79.4734 26.7163 77.1238 25.7817 74.4586 25.7817C68.8857 25.7817 64.6438 30.0738 64.6188 35.7158C64.5938 41.3579 68.7977 45.65 74.3706 45.65C77.0359 45.65 79.3938 44.7154 81.2352 43.1578L81.2174 47.173C79.2041 48.4537 76.7779 49.1806 74.1473 49.1806ZM84.7277 48.7652L84.8013 32.1506H88.1589L88.1495 34.2621C88.2889 34.0544 88.4627 33.8813 88.6366 33.7083C89.7144 32.6352 91.2403 31.9776 92.971 31.9776C93.3517 31.9776 93.6977 32.0122 94.0783 32.0468L94.0635 35.4043C93.6829 35.3697 93.3369 35.3351 92.9215 35.3351C91.5369 35.3351 90.3925 35.8197 89.5927 36.6504C88.7931 37.4465 88.3037 38.5196 88.2952 40.4579L88.2584 48.7652H84.7277ZM103.267 49.1806C98.4212 49.1806 94.7691 45.3385 94.7906 40.4925C94.8126 35.5082 98.2907 31.7353 102.929 31.7353C107.567 31.7353 110.977 35.5082 110.955 40.4579C110.954 40.8733 110.917 41.3233 110.881 41.7386H98.3849C98.7205 44.127 100.755 45.8577 103.316 45.8577C105.255 45.8577 106.886 44.8539 107.724 43.3309L110.624 45.0269C109.124 47.5537 106.452 49.1806 103.267 49.1806ZM98.3976 38.8657H107.328C107.13 36.5812 105.373 34.9197 102.95 34.9197C100.492 34.9197 98.65 36.5812 98.3976 38.8657ZM121.298 49.1806C116.556 49.1806 112.939 45.3038 112.96 40.4579C112.982 35.612 116.633 31.7353 121.376 31.7353C123.383 31.7353 125.145 32.4622 126.49 33.7083L126.542 21.8358H130.073L129.954 48.7652H126.596L126.603 47.1038C125.213 48.4191 123.375 49.1806 121.298 49.1806ZM121.694 45.7884C124.602 45.7884 126.827 43.5039 126.841 40.4579C126.854 37.4119 124.649 35.1274 121.741 35.1274C118.868 35.1274 116.643 37.4119 116.629 40.4579C116.616 43.5039 118.821 45.7884 121.694 45.7884ZM136.49 29.6238C135.174 29.6238 134.072 28.4816 134.077 27.2009C134.083 25.8856 135.196 24.8125 136.511 24.8125C137.826 24.8125 138.895 25.8856 138.889 27.2009C138.883 28.4816 137.805 29.6238 136.49 29.6238ZM134.64 48.7652L134.713 32.1506H138.244L138.17 48.7652H134.64ZM144.051 48.7652L144.11 35.3005H141.064L141.078 32.1506H144.124L144.152 25.8163H147.683L147.655 32.1506H151.22L151.206 35.3005H147.641L147.581 48.7652H144.051Z" fill="black"/>
<defs>
<clipPath id="clip0_2368_1230">
<rect width="28.0563" height="33.8028" fill="white" transform="translate(20.9253 19.9902)"/>
</clipPath>
</defs>
</svg>
