<svg width="169" height="71" viewBox="0 0 169 71" fill="none" xmlns="http://www.w3.org/2000/svg">
<rect width="169" height="70.285" rx="16.47" fill="black"/>
<g clip-path="url(#clip0_2368_1255)">
<path opacity="0.95" d="M36.5312 19.6738C40.4257 19.6739 43.4898 21.8445 44.6182 24.8613C44.9394 25.7153 45.0957 26.6399 45.0801 27.6035C43.8499 26.9611 42.3612 26.5693 40.7393 26.5693H31.0537L29.4316 36.9131L29.1494 38.6924L27.8096 47.2568H20.6709L24.9648 19.6738H36.5312Z" fill="white"/>
<path opacity="0.5" d="M49.1943 35.5336C48.4028 40.3137 44.2889 43.8086 39.4227 43.8086H35.4341L33.7728 54.1522H26.6733L27.8096 47.2565L29.1495 38.6916L29.4316 36.9128H35.1755C41.1309 36.9128 45.0803 31.8742 45.0803 27.6035C48.011 29.1159 49.7193 32.172 49.1943 35.5336Z" fill="white"/>
<path opacity="0.7" d="M45.0803 27.6047C43.8501 26.9621 42.3612 26.5703 40.7391 26.5703H31.0537L29.4316 36.914H35.1755C41.1309 36.914 45.0803 31.8753 45.0803 27.6047Z" fill="white"/>
</g>
<path d="M74.5076 49.1786C66.8579 49.1786 61.1039 43.1905 61.137 35.7139C61.1701 28.2373 66.9771 22.2492 74.6269 22.2492C77.2575 22.2492 79.6773 22.9761 81.6792 24.2568L81.6614 28.2719C79.8338 26.7143 77.4842 25.7798 74.8189 25.7798C69.246 25.7798 65.0041 30.0719 64.9791 35.7139C64.9542 41.3559 69.1581 45.648 74.7309 45.648C77.3962 45.648 79.7541 44.7135 81.5955 43.1558L81.5778 47.171C79.5645 48.4517 77.1383 49.1786 74.5076 49.1786ZM85.0881 48.7633L85.1617 32.1487H88.5192L88.5099 34.2601C88.6493 34.0524 88.8231 33.8794 88.9969 33.7063C90.0747 32.6333 91.6006 31.9756 93.3313 31.9756C93.7121 31.9756 94.0581 32.0102 94.4387 32.0448L94.4238 35.4024C94.0432 35.3678 93.6972 35.3331 93.2819 35.3331C91.8973 35.3331 90.7529 35.8177 89.9531 36.6485C89.1534 37.4446 88.6641 38.5176 88.6555 40.456L88.6187 48.7633H85.0881ZM103.627 49.1786C98.7815 49.1786 95.1294 45.3365 95.1509 40.4906C95.173 35.5062 98.6511 31.7333 103.289 31.7333C107.928 31.7333 111.338 35.5062 111.316 40.456C111.314 40.8713 111.277 41.3213 111.241 41.7367H98.7452C99.0808 44.125 101.115 45.8557 103.677 45.8557C105.615 45.8557 107.247 44.8519 108.084 43.3289L110.984 45.025C109.484 47.5518 106.812 49.1786 103.627 49.1786ZM98.758 38.8637H107.688C107.491 36.5792 105.733 34.9178 103.31 34.9178C100.852 34.9178 99.0104 36.5792 98.758 38.8637ZM121.659 49.1786C116.917 49.1786 113.299 45.3019 113.321 40.456C113.342 35.6101 116.994 31.7333 121.736 31.7333C123.744 31.7333 125.506 32.4602 126.85 33.7063L126.903 21.8338H130.433L130.314 48.7633H126.956L126.964 47.1018C125.573 48.4171 123.736 49.1786 121.659 49.1786ZM122.054 45.7865C124.962 45.7865 127.187 43.502 127.201 40.456C127.214 37.41 125.009 35.1255 122.102 35.1255C119.229 35.1255 117.003 37.41 116.99 40.456C116.976 43.502 119.182 45.7865 122.054 45.7865ZM136.85 29.6219C135.535 29.6219 134.432 28.4796 134.438 27.1989C134.444 25.8836 135.556 24.8106 136.871 24.8106C138.187 24.8106 139.255 25.8836 139.249 27.1989C139.243 28.4796 138.165 29.6219 136.85 29.6219ZM135 48.7633L135.073 32.1487H138.604L138.531 48.7633H135ZM144.411 48.7633L144.471 35.2985H141.424L141.438 32.1487H144.484L144.512 25.8144H148.043L148.015 32.1487H151.58L151.566 35.2985H148.001L147.942 48.7633H144.411Z" fill="white"/>
<defs>
<clipPath id="clip0_2368_1255">
<rect width="28.6174" height="34.4788" fill="white" transform="translate(20.6709 19.6738)"/>
</clipPath>
</defs>
</svg>
