<?xml version="1.0" encoding="UTF-8"?>
<svg id="Layer_1" data-name="Layer 1" xmlns="http://www.w3.org/2000/svg" viewBox="0 0 1920 1080">
  <path d="M393.21,442.46h52.54c35.29,0,51.94,25.58,51.94,49.37s-16.65,49.37-51.94,49.37h-17.84v50.75h-34.7v-149.49ZM440.59,510.46c13.68,0,21.41-7.53,21.41-18.64s-7.73-18.64-21.41-18.64h-12.69v37.27h12.69ZM492.53,542.38c0-29.54,21.81-52.74,50.16-52.74,11.3,0,21.41,4.36,28.95,11.7v-8.53h30.33v99.13h-30.33v-8.52c-7.53,7.34-17.64,11.7-28.95,11.7-28.35,0-50.16-23.2-50.16-52.74ZM569.66,542.38c0-13.08-9.12-22.6-21.41-22.6s-21.41,9.52-21.41,22.6,9.12,22.6,21.41,22.6,21.41-9.52,21.41-22.6ZM654.91,573.7l-45.8-80.89h37.67l25.58,47.19h.2l22.6-47.19h35.29l-74.74,149.49h-35.29l34.5-68.6ZM737.58,442.46h52.54c35.29,0,51.94,25.58,51.94,49.37s-16.65,49.37-51.94,49.37h-17.84v50.75h-34.7v-149.49ZM784.96,510.46c13.68,0,21.41-7.53,21.41-18.64s-7.73-18.64-21.41-18.64h-12.69v37.27h12.69ZM836.91,542.38c0-29.54,21.81-52.74,50.16-52.74,11.3,0,21.41,4.36,28.95,11.7v-8.53h30.33v99.13h-30.33v-8.52c-7.53,7.34-17.64,11.7-28.95,11.7-28.35,0-50.16-23.2-50.16-52.74ZM914.03,542.38c0-13.08-9.12-22.6-21.41-22.6s-21.41,9.52-21.41,22.6,9.12,22.6,21.41,22.6,21.41-9.52,21.41-22.6ZM959.43,442.46h33.31v149.49h-33.31v-149.49Z"/>
  <path d="M1031.76,517.2c0-42.82,33.11-77.12,76.92-77.12,15.07,0,28.95,4.16,40.44,11.5v23c-10.51-8.92-23.99-14.27-39.25-14.27-31.92,0-56.11,24.58-56.11,56.9s24.19,56.9,56.11,56.9c15.27,0,28.75-5.35,39.25-14.27v23c-11.5,7.34-25.38,11.5-40.44,11.5-43.82,0-76.92-34.3-76.92-77.12Z"/>
  <path d="M1162.41,496.78h19.23v12.09c.79-1.19,1.78-2.18,2.78-3.17,6.15-6.15,14.87-9.91,24.78-9.91,2.18,0,4.16.2,6.34.4v19.23c-2.18-.2-4.16-.4-6.54-.4-7.93,0-14.47,2.78-19.03,7.53-4.56,4.56-7.33,10.71-7.33,21.81v47.58h-20.22v-95.16Z"/>
  <path d="M1216.73,544.56c0-28.55,19.83-50.16,46.39-50.16s46.19,21.61,46.19,49.96c0,2.38-.2,4.96-.4,7.34h-71.57c1.98,13.68,13.68,23.59,28.35,23.59,11.1,0,20.42-5.75,25.18-14.47l16.65,9.71c-8.53,14.47-23.79,23.79-42.03,23.79-27.76,0-48.77-22.01-48.77-49.76ZM1288.5,535.24c-1.19-13.08-11.3-22.6-25.18-22.6s-24.58,9.52-25.97,22.6h51.15Z"/>
  <path d="M1317.84,544.36c0-27.76,20.82-49.96,47.98-49.96,11.5,0,21.61,4.16,29.34,11.3v-68h20.22v154.24h-19.23v-9.52c-7.93,7.53-18.44,11.9-30.33,11.9-27.16,0-47.98-22.2-47.98-49.96ZM1397.34,544.36c0-17.45-12.69-30.53-29.34-30.53s-29.14,13.08-29.14,30.53,12.69,30.53,29.14,30.53,29.34-13.08,29.34-30.53Z"/>
  <path d="M1431.43,468.43c0-7.53,6.34-13.68,13.88-13.68s13.68,6.15,13.68,13.68-6.15,13.88-13.68,13.88-13.88-6.54-13.88-13.88ZM1435.2,496.78h20.22v95.16h-20.22v-95.16Z"/>
  <path d="M1486.15,514.82h-17.45v-18.04h17.45v-36.28h20.22v36.28h20.42v18.04h-20.42v77.12h-20.22v-77.12Z"/>
</svg>